# xmcd CD database file
#
# Track frame offsets:
#	150
#	25255
#	42190
#	63587
#	86350
#	108205
#	130400
#	149852
#	173230
#	193460
#	217790
#	244900
#	270247
#	286727
#	303710
#	325582
#
# Disc length: 4625 seconds
#
# Revision: 4
# Processed by: cddbd v1.5PL3 Copyright (c) Steve Scherf et al.
# Submitted via: CDex 1.50Beta3
#
DISCID=eb120f10
DTITLE=石川さゆり - 秋冬
DYEAR=1900
DGENRE=Classical
TTITLE0=風の盆恋唄
TTITLE1=津軽海峡・冬景色
TTITLE2=大阪のおんな
TTITLE3=滝の白糸
TTITLE4=越前竹舞い
TTITLE5=北の女房
TTITLE6=漁火挽歌
TTITLE7=うたかた
TTITLE8=裏町夫婦草
TTITLE9=飢餓海峡
TTITLE10=歌麿 -UTAMARO-
TTITLE11=ホテル港や
TTITLE12=命燃やして
TTITLE13=沈丁花
TTITLE14=霧の別れ
TTITLE15=鴎という名の酒場
EXTD=
EXTT0=
EXTT1=
EXTT2=
EXTT3=
EXTT4=
EXTT5=
EXTT6=
EXTT7=
EXTT8=
EXTT9=
EXTT10=
EXTT11=
EXTT12=
EXTT13=
EXTT14=
EXTT15=
PLAYORDER=
